<?xml version="1.0" encoding="UTF-8"?>
<svg id="Layer_1" xmlns="http://www.w3.org/2000/svg" version="1.1" viewBox="0 0 497.8 362.8">
  <!-- Generator: Adobe Illustrator 29.6.0, SVG Export Plug-In . SVG Version: 2.1.1 Build 207)  -->
  <defs>
    <style>
      .st0 {
        fill: #859091;
      }
    </style>
  </defs>
  <g id="graph-24">
    <g id="graph-24-2">
      <polygon class="st0" points="18 2.9 0 2.9 0 344 0 362.8 18 362.8 493 362.8 493 344 18 344 18 2.9"/>
      <path class="st0" d="M61.3,64.9c6.9,0,13.3-2.2,18.6-5.9l97.2,70.3c-.2,1.4-.4,2.7-.4,4.1,0,18,14.6,32.4,32.5,32.4s22-6.3,27.7-15.8h48.6c2.8,15.1,15.9,26.6,31.9,26.6s32.5-14.6,32.5-32.4-.5-6-1.3-8.8l90.7-58.1c5.8,5.6,13.8,9.1,22.5,9.1,17.9,0,32.5-14.5,32.5-32.5s-14.5-32.5-32.5-32.5-32.5,14.6-32.5,32.5.4,5.3,1,7.8l-91.2,58.4c-5.8-5.2-13.3-8.4-21.7-8.4-13.8,0-25.5,8.6-30.2,20.7h-45.6c-.5-17.5-14.8-31.6-32.4-31.6s-18.7,4.6-24.6,11.6L91.2,45c1.6-3.9,2.5-8.1,2.5-12.6.1-17.9-14.5-32.4-32.4-32.4S28.8,14.5,28.8,32.5s14.6,32.5,32.5,32.5h0v-.1Z"/>
      <path class="st0" d="M205.6,306.6c15.5,0,28.5-10.9,31.7-25.5h49.5c4.4,12.7,16.3,21.9,30.6,21.9s26.2-9.2,30.6-21.9h86.8c4.4,12.7,16.4,21.9,30.6,21.9s32.5-14.5,32.5-32.5-14.6-32.5-32.5-32.5-28.3,10.9-31.6,25.4h-84.6c-3.3-14.5-16.1-25.4-31.6-25.4s-28.4,10.9-31.6,25.4h-49.7c-4.4-12.6-16.4-21.8-30.5-21.8s-14.5,2.7-20.1,7.1l-86.2-62.3c1-3.1,1.7-6.3,1.7-9.8,0-17.9-14.6-32.4-32.5-32.4s-32.4,14.5-32.4,32.4,14.5,32.5,32.4,32.5,15.2-3,20.8-7.7l85.8,61.9c-1.2,3.4-2,7-2,10.8,0,17.9,14.5,32.5,32.5,32.5h-.2Z"/>
    </g>
  </g>
</svg>