<?xml version="1.0" encoding="UTF-8"?>
<svg id="Layer_1" data-name="Layer 1" xmlns="http://www.w3.org/2000/svg" viewBox="0 0 1045.33 1045.33">
  <defs>
    <style>
      .cls-1 {
        fill: #ddebf0;
      }

      .cls-2 {
        fill: #b0c3c5;
      }

      .cls-3 {
        fill: #fff;
      }

      .cls-4 {
        fill: #98abaf;
      }

      .cls-5 {
        fill: #848e8f;
      }

      .cls-6 {
        fill: #c6dbdf;
      }
    </style>
  </defs>
  <circle class="cls-3" cx="522.67" cy="522.67" r="522.67"/>
  <g>
    <polygon class="cls-2" points="164.04 511.26 212.89 375.57 336.82 295.97 164.04 511.26"/>
    <polygon class="cls-6" points="336.82 468.29 336.82 295.97 164.04 511.26 336.82 468.29"/>
    <polygon class="cls-2" points="330.25 572.9 336.82 468.29 164.04 511.26 330.25 572.9"/>
    <polygon class="cls-4" points="163.81 510.48 201.8 605.01 310.71 674.49 330.25 572.9 163.81 510.48"/>
    <polygon class="cls-2" points="233.85 704.07 310.71 674.49 201.8 605.01 168.87 643.89 233.85 704.07"/>
    <polygon class="cls-4" points="159.52 718.99 168.87 643.89 233.85 704.07 220.45 727.58 238.4 759.19 264.69 766.52 256.6 780.93 212.66 780.93 159.52 718.99"/>
    <polygon class="cls-6" points="330.25 572.9 430.04 683.34 310.71 674.49 330.25 572.9"/>
    <polygon class="cls-2" points="443.19 763.69 418.41 752.31 418.16 717.72 430.04 683.34 310.71 674.49 342.57 737.44 406.53 780.93 450.27 780.93 462.53 765.51 443.19 763.69"/>
    <polygon class="cls-6" points="418.16 717.72 443.51 758.95 462.53 765.51 443.19 763.69 418.41 752.31 418.16 717.72"/>
    <polygon class="cls-1" points="430.04 584.26 336.82 468.29 330.25 572.9 430.04 683.34 430.04 584.26"/>
    <polygon class="cls-1" points="499.04 415.84 336.82 468.29 336.82 295.97 506.73 328.18 499.04 415.84"/>
    <polygon class="cls-6" points="532.11 515.81 430.04 584.26 336.82 468.29 499.04 415.84 532.11 515.81"/>
    <polygon class="cls-2" points="506.73 575.82 532.11 515.81 430.04 584.26 430.04 638.86 509.81 628.12 506.73 575.82"/>
    <polygon class="cls-4" points="430.04 667.31 509.99 628.09 430.04 638.86 430.04 667.31"/>
    <polygon class="cls-4" points="579.02 775.74 506.73 575.82 512.89 674.49 579.02 775.74"/>
    <polygon class="cls-4" points="556.21 572.9 506.73 575.82 579.02 775.74 594.37 755.64 556.21 572.9"/>
    <polygon class="cls-2" points="650.87 780.93 579.02 775.74 594.37 755.64 646.9 768.28 664.74 763.69 650.87 780.93"/>
    <polygon class="cls-1" points="617.17 737.44 594.37 755.64 646.9 768.28 664.74 763.69 638.48 755.64 617.17 737.44"/>
    <polygon class="cls-6" points="621.88 628.09 556.21 572.9 594.37 755.64 617.17 737.44 608.25 667.31 621.88 628.09"/>
    <polygon class="cls-6" points="629.56 452.48 532.11 515.81 506.73 575.82 556.21 572.9 629.56 452.48"/>
    <polygon class="cls-1" points="661.42 537.76 629.56 452.48 556.21 572.9 621.88 628.09 661.42 537.76"/>
    <polygon class="cls-4" points="687.21 552.09 630.51 608.37 661.42 537.76 750.38 528.81 687.21 552.09"/>
    <polygon class="cls-6" points="724.06 487.22 661.42 537.76 750.38 528.81 804.6 481.96 724.06 487.22"/>
    <polygon class="cls-4" points="714.58 421.42 724.06 487.22 661.42 537.76 629.56 452.48 714.58 421.42"/>
    <polygon class="cls-2" points="844.61 474.06 804.6 481.96 724.06 487.22 714.58 421.42 813.55 415.84 844.61 474.06"/>
    <polygon class="cls-2" points="641.7 393.52 714.58 421.42 629.56 452.48 532.11 515.81 499.04 415.84 641.7 393.52"/>
    <polygon class="cls-6" points="594.37 312.45 499.04 415.84 641.7 393.52 594.37 312.45"/>
    <polygon class="cls-2" points="506.73 328.18 594.37 312.45 499.04 415.84 506.73 328.18"/>
    <polygon class="cls-1" points="669.84 341.93 594.37 312.45 641.7 393.52 714.58 421.42 669.84 341.93"/>
    <polygon class="cls-6" points="788.81 298.24 770.91 316.13 761.96 335.61 781.97 347.72 785.65 320.87 795.65 306.13 788.81 298.24"/>
    <polygon class="cls-4" points="800.92 326.14 781.97 347.72 785.65 320.87 795.65 306.13 812.5 302.97 815.13 332.98 800.92 326.14"/>
    <polygon class="cls-1" points="804.6 295.97 812.5 302.97 795.65 306.13 788.81 298.24 804.6 295.97"/>
    <polygon class="cls-2" points="767.77 322.98 669.84 341.93 714.58 421.42 761.96 335.61 767.77 322.98"/>
    <polygon class="cls-4" points="844.61 387.2 781.97 347.72 761.96 335.61 714.58 421.42 813.55 415.84 844.61 387.2"/>
    <polygon class="cls-5" points="928.31 393.52 944.1 393.52 952 410.89 946.21 418.26 928.31 393.52"/>
    <polygon class="cls-6" points="904.1 462.48 946.21 418.26 928.31 393.52 844.61 387.2 813.55 415.84 844.61 474.06 904.1 462.48"/>
    <polygon class="cls-1" points="872.74 347.72 844.61 387.2 928.31 393.52 944.1 393.52 923.43 387.2 894.36 372.2 872.74 347.72"/>
    <polygon class="cls-6" points="814.25 322.98 872.74 347.72 844.61 387.2 781.97 347.72 800.92 326.14 815.13 332.98 814.25 322.98"/>
  </g>
</svg>