<?xml version="1.0" encoding="UTF-8"?>
<svg id="Layer_1" xmlns="http://www.w3.org/2000/svg" version="1.1" viewBox="0 0 1010 1010">
  <!-- Generator: Adobe Illustrator 29.6.0, SVG Export Plug-In . SVG Version: 2.1.1 Build 207)  -->
  <defs>
    <style>
      .st0 {
        fill: #859091;
      }
    </style>
  </defs>
  <g id="graph-26">
    <path id="graph-26-2" class="st0" d="M529.3,177l86.7-150.1c8.3-14.5,22.2-14.5,30.5,0l86.7,150.1c8.4,14.5,1.6,26.5-15.3,26.5h-36.4v626.8h-100.8V203.6h-36.4c-16.7,0-23.6-11.8-15.3-26.5h.4l-.1-.1ZM978.9,900.5h-43V379.2h36.4c16.7,0,23.6-12,15.3-26.5l-86.7-150.1c-8.4-14.5-22.2-14.5-30.5,0l-86.7,150.1c-8.4,14.5-1.6,26.5,15.3,26.5h36.4v521.3h-153.5v-41.9h-100.8v41.9h-153.5v-332.5h36.4c16.9,0,23.6-11.8,15.3-26.3l-86.7-150.1c-8.4-14.5-22.2-14.5-30.5,0l-86.9,150.1c-8.4,14.5-1.6,26.3,15.3,26.3h36.4v332.5h-153.5v-196.9h36.4c16.9,0,23.6-11.8,15.3-26.3l-86.7-150.1c-8.4-14.5-22.2-14.5-30.7,0l-86.7,150.1c-8.4,14.5-1.6,26.3,15.3,26.3h36.4v196.9H31.2c-7.3,0-13.4,5.9-13.4,13.4v66.8c0,7.5,6.1,13.4,13.4,13.4h948.3c7.3,0,13.4-5.9,13.4-13.4v-66.8c0-7.5-5.9-13.4-13.4-13.4h-.6Z"/>
  </g>
</svg>