<?xml version="1.0" encoding="UTF-8"?>
<svg id="Layer_1" xmlns="http://www.w3.org/2000/svg" version="1.1" viewBox="0 0 497.8 424.3">
  <!-- Generator: Adobe Illustrator 29.6.0, SVG Export Plug-In . SVG Version: 2.1.1 Build 207)  -->
  <defs>
    <style>
      .st0 {
        fill: #859091;
      }
    </style>
  </defs>
  <g id="graph-12">
    <g id="graph-12-2">
      <path class="st0" d="M71.2,183.5H23c-12.6,0-23,10.3-23,22.9v195c0,12.6,10.3,23,23,23h48.2c12.6,0,22.9-10.3,22.9-23v-195c0-12.6-10.3-22.9-22.9-22.9h0Z"/>
      <path class="st0" d="M205.7,137.6h-48.2c-12.6,0-22.9,10.3-22.9,22.9v240.8c0,12.6,10.4,23,22.9,23h48.2c12.6,0,22.9-10.3,22.9-23v-240.8c0-12.6-10.3-22.9-22.9-22.9h0Z"/>
      <path class="st0" d="M340.2,73.4h-48.2c-12.6,0-22.9,10.3-22.9,22.9v305.1c0,12.6,10.3,23,22.9,23h48.2c12.6,0,22.9-10.3,22.9-23V96.3c0-12.6-10.3-22.9-22.9-22.9Z"/>
      <path class="st0" d="M474.8,0h-48.1c-12.6,0-23,10.3-23,22.9v378.5c0,12.6,10.3,23,23,23h48.1c12.6,0,23-10.3,23-23V22.9c0-12.6-10.4-22.9-23-22.9Z"/>
    </g>
  </g>
</svg>