<?xml version="1.0" encoding="UTF-8"?>
<svg id="Layer_1" xmlns="http://www.w3.org/2000/svg" version="1.1" viewBox="0 0 437.9 497.8">
  <!-- Generator: Adobe Illustrator 29.6.0, SVG Export Plug-In . SVG Version: 2.1.1 Build 207)  -->
  <defs>
    <style>
      .st0 {
        fill: #859091;
      }
    </style>
  </defs>
  <g id="graph-23">
    <path id="graph-23-2" class="st0" d="M211.1,372.7v81.3c0,35.9-19.8,43.8-44.1,43.8h-3.1c-24.4,0-44.2-9.7-44.2-43.8v-81.3c0-40.4,19.8-47.8,44.2-47.8h3.1c24.4,0,44.1.9,44.1,47.8ZM393.7,103.6h-3.2c-24.3,0-44.1,7.4-44.1,47.8v301c0,34.2,19.8,43.8,44.1,43.8h3.2c24.3,0,44.1-7.8,44.1-43.8V151.3c0-46.8-19.8-47.8-44.1-47.8h0v.1ZM282.7,232.7h-3.1c-24.4,0-44.1,7.4-44.1,47.8v171.5c0,34.1,19.8,43.8,44.1,43.8h3.1c24.4,0,44.1-7.8,44.1-43.8v-171.5c0-46.8-19.8-47.8-44.1-47.8h0ZM47.3,232.7h-3.2C19.8,232.7-.1,240.1-.1,280.5v171.5c0,34.1,19.8,43.8,44.2,43.8h3.2c24.4,0,44.1-7.8,44.1-43.8v-171.5c0-46.8-19.8-47.8-44.1-47.8h0ZM44.5,187l113.8,75.8L407,33h0c2.6-2.4,2.8-6.6.3-9.2h0c-2.4-2.6-6.5-2.8-9.2-.4l-241.3,222.9-105.2-70.1h0c-3-2-7-1.2-9,1.8h0c-2,3-1.2,7,1.8,9h.1ZM414.5,81.6L431.8,0l-82.1,18.9,64.8,62.8v-.1Z"/>
  </g>
</svg>