<?xml version="1.0" encoding="UTF-8"?>
<svg id="Layer_1" xmlns="http://www.w3.org/2000/svg" version="1.1" viewBox="0 0 497.7 400">
  <!-- Generator: Adobe Illustrator 29.6.0, SVG Export Plug-In . SVG Version: 2.1.1 Build 207)  -->
  <defs>
    <style>
      .st0 {
        fill: #859091;
      }
    </style>
  </defs>
  <g id="graph-21">
    <path id="graph-21-2" class="st0" d="M497.7,369.4v30.6H0V45h30.6v324.4h467.1ZM121.8,197.3c0-11.7-9.6-21.3-21.3-21.3h-26.6c-11.7,0-21.3,9.6-21.3,21.3v152h69.1v-152h.1ZM183.8,133.5c-11.7,0-21.3,9.6-21.3,21.2v194.6h69.1v-194.6c0-11.7-9.6-21.2-21.3-21.2h-26.6.1ZM293.7,176.1c-11.7,0-21.2,9.6-21.2,21.3v152h69.1v-152c0-11.7-9.6-21.3-21.2-21.3h-26.7ZM430.2,91h-26.6c-11.7,0-21.2,9.6-21.2,21.3v237.1h69.1V112.2c0-11.7-9.5-21.3-21.3-21.3v.1ZM98.1,148.9l101.5-81.5,93.2,83.3c2,1.8,4.6,2.7,7.1,2.7s5.3-1,7.4-3l112.9-109.1,22.7,22.7h5.9V0h-64v5.9l20.4,20.4-105.6,101.9-92.6-82.7c-3.9-3.5-9.7-3.7-13.7-.4l-108.5,87.2c-4.6,3.7-5.3,10.4-1.6,15,3.7,4.6,10.4,5.3,15,1.6h-.1Z"/>
  </g>
</svg>