<?xml version="1.0" encoding="UTF-8"?>
<svg id="Layer_1" xmlns="http://www.w3.org/2000/svg" version="1.1" viewBox="0 0 497.7 497.1">
  <!-- Generator: Adobe Illustrator 29.6.0, SVG Export Plug-In . SVG Version: 2.1.1 Build 207)  -->
  <defs>
    <style>
      .st0 {
        fill: #859091;
      }
    </style>
  </defs>
  <g id="graph-32">
    <g id="graph-32-2">
      <path class="st0" d="M473,356.6c15.9-32.7,24.7-69.5,24.7-108.3C497.7,116.7,395.7,9,266.5,0l.2,95.9c76.3,8.8,135.5,73.7,135.5,152.3,0,31.23-4.3,41.4-12.1,59.7l82.8,48.6h0l.1.1h0Z"/>
      <path class="st0" d="M43.1,388.3c44.8,65.7,120.2,108.8,205.8,108.8s161.1-43.2,205.9-109l-83.1-47.9c-28,37.2-72.5,61.4-122.7,61.4s-94.9-24.2-122.8-61.6l-82.9,48.2h-.2v.1h0Z"/>
      <path class="st0" d="M107.9,308.8c-8-18.6-12.4-39-12.4-60.5,0-78.7,59.4-143.6,135.8-152.3L231,0C101.9,9.2,0,116.8,0,248.2c0,63.8,8.9,75.9,24.9,108.7l82.9-48.2h0l.1.1Z"/>
    </g>
  </g>
</svg>