<?xml version="1.0" encoding="UTF-8"?>
<svg id="Layer_1" xmlns="http://www.w3.org/2000/svg" version="1.1" viewBox="0 0 477.6 477.9">
  <!-- Generator: Adobe Illustrator 29.6.0, SVG Export Plug-In . SVG Version: 2.1.1 Build 207)  -->
  <defs>
    <style>
      .st0 {
        fill: #859091;
      }
    </style>
  </defs>
  <g id="graph-2">
    <g id="graph-2-2">
      <path class="st0" d="M374.4,435.6H102.9c-9.1-6.3-17.8-13.2-26-20.8l5.2-5.2h323.8c-9.8,9.6-20.4,18.3-31.5,26h0Z"/>
      <path class="st0" d="M102,389.6l26-26h314.5c-5.5,9-11.7,17.7-18.4,26H102Z"/>
      <path class="st0" d="M414.5,77.2c10.6,11.5,20,23.9,28,37h-65l37-37Z"/>
      <path class="st0" d="M357.6,134.1h95.9c4.1,8.5,7.8,17.1,10.9,26h-132.8l26-26h0Z"/>
      <path class="st0" d="M311.6,180h158.7c2.1,8.6,3.8,17.2,5,26h-189.6l26-26h-.1Z"/>
      <path class="st0" d="M265.7,225.9h211.5c.2,4.3.4,8.7.4,13s-.1,8.7-.4,13h-237.5l26-26h0Z"/>
      <path class="st0" d="M219.8,271.8h255.5c-1.2,8.8-2.8,17.5-5,26H193.8l26-26Z"/>
      <path class="st0" d="M173.9,317.7h290.4c-3.1,8.9-6.7,17.5-10.9,26H147.9l26-26h0Z"/>
      <path class="st0" d="M69.7,70C114.8,24.9,174.8,0,238.7,0s117.6,22.4,161.7,63.1l-237.6,237.6h0l-99.7,99.7c-86.1-93.6-84.1-239.7,6.7-330.5h0l-.1.1Z"/>
      <path class="st0" d="M238.7,477.9c-35.6,0-69.9-7.8-101.2-22.4h202.5c-31.3,14.6-65.6,22.4-101.2,22.4h-.1Z"/>
    </g>
  </g>
</svg>