<?xml version="1.0" encoding="UTF-8"?>
<svg id="Layer_1" xmlns="http://www.w3.org/2000/svg" version="1.1" viewBox="0 0 497.7 497.8">
  <!-- Generator: Adobe Illustrator 29.6.0, SVG Export Plug-In . SVG Version: 2.1.1 Build 207)  -->
  <defs>
    <style>
      .st0 {
        fill: #859091;
      }
    </style>
  </defs>
  <g id="graph-15">
    <g id="graph-15-2">
      <path class="st0" d="M238.1,137.1V0c-58.6,2.5-114.3,25.6-157.6,65.3l96.9,96.9c16.8-13.9,37.7-22.9,60.6-25.1h.1Z"/>
      <path class="st0" d="M360.6,238.1h137.1c-2.5-58.6-25.6-114.3-65.2-157.5l-96.9,96.9c13.9,16.8,22.9,37.7,25.1,60.6h-.1Z"/>
      <path class="st0" d="M320.3,162.2l96.9-96.9C374,25.6,318.3,2.5,259.6,0v137.1c22.9,2.2,43.8,11.2,60.6,25.1h.1Z"/>
      <path class="st0" d="M162.2,177.5l-97-96.9C25.5,123.8,2.5,179.5,0,238.1h137.1c2.2-22.9,11.2-43.8,25.1-60.6h0Z"/>
      <path class="st0" d="M137.1,259.6H0c2.5,58.7,25.5,114.3,65.2,157.6l97-96.9c-13.9-16.8-22.9-37.7-25.1-60.6h0v-.1Z"/>
      <path class="st0" d="M177.5,335.5l-96.9,97c43.2,39.6,99,62.7,157.6,65.2v-137.1c-22.9-2.2-43.8-11.2-60.6-25.1h-.1Z"/>
      <path class="st0" d="M335.5,320.3l96.9,96.9c39.7-43.2,62.7-98.9,65.2-157.6h-137.1c-2.2,22.9-11.2,43.8-25.1,60.6h0l.1.1Z"/>
      <path class="st0" d="M259.6,360.6v137.1c58.6-2.5,114.3-25.6,157.6-65.2l-96.9-97c-16.8,13.8-37.7,22.9-60.6,25.1h-.1Z"/>
    </g>
  </g>
</svg>