<?xml version="1.0" encoding="UTF-8"?>
<svg id="Layer_1" xmlns="http://www.w3.org/2000/svg" version="1.1" viewBox="0 0 506.5 497.7">
  <!-- Generator: Adobe Illustrator 29.6.0, SVG Export Plug-In . SVG Version: 2.1.1 Build 207)  -->
  <defs>
    <style>
      .st0 {
        fill: #859091;
      }
    </style>
  </defs>
  <g id="graph-4">
    <g id="graph-4-2">
      <path class="st0" d="M248.9,133.5c62.2,0,113.1,49.5,115.3,111.2h8.7l-32.2,32.2-32.2-32.2h8.5c-2.2-35.7-31.9-64.1-68.1-64.1s-68.2,30.6-68.2,68.3,30.6,68.2,68.2,68.2v47.1c-63.6,0-115.3-51.7-115.3-115.4s51.8-115.4,115.4-115.4h0l-.1.1Z"/>
      <path class="st0" d="M248.9,66.8c99.1,0,179.9,79.5,182.1,178.1h8.6l-32.2,32.2-32.2-32.2h8.7c-2.1-72.6-61.8-131-135-131s-135,60.6-135,135,60.6,135,135,135v47.1c-100.4,0-182.1-81.7-182.1-182.1S148.5,66.8,248.9,66.8h0Z"/>
      <path class="st0" d="M72.9,72.9C119.9,25.9,182.4,0,248.9,0s129,25.9,176,72.9c46.1,46.1,71.8,107,72.9,172h8.7l-32.2,32.2-32.2-32.2h8.6c-2.2-109.4-91.8-197.8-201.7-197.8S47.1,137.6,47.1,248.9s90.5,201.8,201.8,201.8v47.1c-66.5,0-129-25.9-176-72.9C25.9,377.8,0,315.4,0,248.9S25.9,119.9,72.9,72.9Z"/>
    </g>
  </g>
</svg>